<?xml version="1.0" encoding="utf-8"?>
<!-- Generator: Adobe Illustrator 22.1.0, SVG Export Plug-In . SVG Version: 6.00 Build 0)  -->
<svg version="1.1" id="Layer_1" xmlns="http://www.w3.org/2000/svg" xmlns:xlink="http://www.w3.org/1999/xlink" x="0px" y="0px"
	 viewBox="0 0 1112 235.9" style="enable-background:new 0 0 1112 235.9;" xml:space="preserve">
<style type="text/css">
	.st0{fill:#FFFFFF;}
	.st1{fill:#0062FF;}
	.st2{fill:#0062FF;stroke:#0062FF;stroke-width:5;stroke-miterlimit:10;}
	.st3{fill:#0062FF;stroke:#0062FF;stroke-width:8;stroke-miterlimit:10;}
	.st4{fill:#E7FF00;}
	.st5{fill:#FFFF00;}
	.st6{fill:#FF4000;}
	.st7{fill:none;stroke:#FF4000;stroke-width:50;stroke-miterlimit:10;}
	.st8{fill:none;stroke:#FFFF00;stroke-width:50;stroke-miterlimit:10;}
	.st9{clip-path:url(#XMLID_3_);}
	.st10{fill:none;stroke:#FF4000;stroke-width:65.0095;stroke-miterlimit:10;}
	.st11{fill:none;stroke:#FFFF00;stroke-width:65.0095;stroke-miterlimit:10;}
</style>
<g>
	<g>
		<path class="st0" d="M283,166.5V57.3h68.5v16.9h-48.7v28.1h45.6v16.9h-45.6v30.6h49.5v16.9H283z"/>
		<path class="st0" d="M380.5,167l-25-70.7h21.4l16.2,50.9l16.4-50.9h21.4L406,167H380.5z"/>
		<path class="st0" d="M453.4,134.9c0.5,11.9,6.7,18.4,17.6,18.4c7.2,0,13-3.1,14.7-9.8H505c-1.9,11.9-12.5,24.3-34,24.3
			c-25.9,0-38.4-17.6-38.4-36.8c0-19.3,12.5-36.7,38.1-36.7c22.9,0,35,13.9,35,40.6H453.4z M485.5,122.8c-0.9-9.5-6.2-14.4-15-14.4
			c-7.8,0-14.2,3.9-16.4,14.4H485.5z"/>
		<path class="st0" d="M516,166.5V96.3h19.7v11.2c6.1-9.8,13-13.3,21.2-13.3c3.1,0,5.9,0.6,7.8,1.9v16.1c-2-0.8-5-1.1-7.6-1.1
			c-11.7,0-21.4,7-21.4,30.6v24.8H516z"/>
		<path class="st0" d="M583.7,179.6c2.5,1.1,5,1.6,7.5,1.6c6.7,0,9.8-3.4,12.8-13l1.7-5.6H598l-24.2-66.3h20.9l16.4,49l15.4-49h20.9
			l-24.7,74.3c-5.6,16.9-13.7,26.1-28.9,26.1c-4.2,0-7.6-0.6-10.3-1.9V179.6z"/>
		<path class="st0" d="M659.7,166.5V57.3h27.2c19.2,0,31.4,3,40.9,8.6c16.9,10,23.6,27.6,23.6,46c0,29.3-17.2,54.6-66.3,54.6H659.7z
			 M686.2,149.5c30.4,0,44.6-13.6,44.6-37.9c0-25.4-15.4-37.3-44.6-37.3h-7.3v75.2H686.2z"/>
		<path class="st0" d="M797.5,167.8c-25.7,0-38.9-17.8-38.9-36.7c0-18.7,13.1-36.8,38.9-36.8c25.9,0,39,18.1,39,36.8
			C836.5,150,823.4,167.8,797.5,167.8z M815.6,131.3c0-12.8-6.1-22-18.1-22s-18.1,9.2-18.1,22c0,12.8,6.1,21.5,18.1,21.5
			S815.6,144.1,815.6,131.3z"/>
		<path class="st0" d="M913.7,140.3c-1.1,12.6-9.8,27.5-32.5,27.5c-25,0-38.1-17.5-38.1-36.7s13.3-36.8,38.1-36.8
			c19.7,0,29.5,11.2,31.5,25.1h-18.4c-1.2-6.1-5.1-10.5-13-10.5c-10.9,0-17.5,8.1-17.5,22.3c0,14,6.4,22,17.6,22
			c8.6,0,12.6-5,13.6-13H913.7z"/>
		<path class="st0" d="M968.3,164.2c-4.7,2.8-10.3,3.6-15.4,3.6c-16.1,0-24.7-8.6-24.7-27.2v-28.6h-10.5V96.3h10.5V75.6L948,69v27.3
			h20.3v15.8H948V135c0,11.4,0.8,16.4,9.5,16.4c3,0,6.6-0.5,10.8-1.9V164.2z"/>
		<path class="st0" d="M1013.6,167.8c-25.7,0-38.9-17.8-38.9-36.7c0-18.7,13.1-36.8,38.9-36.8c25.9,0,39,18.1,39,36.8
			C1052.6,150,1039.5,167.8,1013.6,167.8z M1031.7,131.3c0-12.8-6.1-22-18.1-22s-18.1,9.2-18.1,22c0,12.8,6.1,21.5,18.1,21.5
			S1031.7,144.1,1031.7,131.3z"/>
		<path class="st0" d="M1063.3,166.5V96.3h19.7v11.2c6.1-9.8,13-13.3,21.2-13.3c3.1,0,5.9,0.6,7.8,1.9v16.1c-2-0.8-5-1.1-7.6-1.1
			c-11.7,0-21.4,7-21.4,30.6v24.8H1063.3z"/>
	</g>
	<path class="st0" d="M230.3,145.4L182.8,118l47.5-27.4c2.7-1.6,3.7-5.1,2.1-7.9l-27.3-47.3c-0.8-1.3-2-2.3-3.5-2.7
		c-1.5-0.4-3.1-0.2-4.4,0.6l-47.5,27.4V5.8c0-3.2-2.6-5.8-5.8-5.8H89.3c-3.2,0-5.8,2.6-5.8,5.8v54.9L36,33.2c-1.3-0.8-2.8-1-4.4-0.6
		c-1.5,0.4-2.7,1.4-3.5,2.7L0.8,82.7c-1.6,2.8-0.6,6.3,2.1,7.9L50.4,118L2.9,145.4c-1.3,0.8-2.3,2-2.7,3.5c-0.4,1.5-0.2,3.1,0.6,4.4
		l27.3,47.3c0.8,1.3,2,2.3,3.6,2.7c1.6,0.4,3.1,0.1,4.3-0.6l47.5-27.4v54.9c0,3.2,2.6,5.8,5.8,5.8h54.6c3.2,0,5.8-2.6,5.8-5.8v-54.9
		l47.5,27.4c1.3,0.8,2.9,1,4.4,0.6c1.5-0.4,2.7-1.4,3.5-2.7l27.3-47.3C234,150.5,233.1,147,230.3,145.4z M105.1,149.5l-69.8,40.3
		l-21.5-37.3L62,124.6L105.1,149.5z M138.2,168.6v55.8H95.1v-55.8l21.5-12.4L138.2,168.6z M128.2,86.4L198,46.1l21.5,37.3
		l-48.3,27.9L128.2,86.4z M95.1,67.3V11.6h43.1v55.7l-21.5,12.4L95.1,67.3z M219.5,152.5L198,189.8l-51.2-29.5L13.7,83.4l21.5-37.3
		L219.5,152.5z"/>
</g>
</svg>
