<svg id="Layer_1" data-name="Layer 1" xmlns="http://www.w3.org/2000/svg" viewBox="0 0 68.4 68.3"><title>Artboard 1</title><path d="M13,68.3H49a13,13,0,0,0,13-13v-22a3,3,0,0,0-3-3h0a3,3,0,0,0-3,3v22a7,7,0,0,1-7,7H13a7,7,0,0,1-7-7v-36a7,7,0,0,1,7-7H35a3,3,0,0,0,3-3,3,3,0,0,0-3-3H13a13,13,0,0,0-13,13H0v36A13,13,0,0,0,13,68.3Z"/><path d="M68.4,21.4V3.1a1.27,1.27,0,0,0-.1-.6c0-.1,0-.2-.1-.2s-.1-.2-.1-.3-.1-.2-.2-.3a.35.35,0,0,0-.1-.2A3,3,0,0,0,67,.7L66.8.6a.72.72,0,0,0-.6-.4L65.9.1c-.2,0-.4-.1-.6-.1H47a3,3,0,0,0-3,3,3,3,0,0,0,3,3H58.1L30.6,33.6a3,3,0,0,0,4.2,4.2L62.4,10.3V21.4a3,3,0,0,0,3,3h0A3.15,3.15,0,0,0,68.4,21.4Z"/></svg>