<svg id="Layer_1" data-name="Layer 1" xmlns="http://www.w3.org/2000/svg" width="433.8197" height="392.1094" viewBox="0 0 433.8197 392.1094"><defs><style>.cls-1{fill:#ff4b3e;}</style></defs><title>Everydoctor icons-numbers</title><path class="cls-1" d="M216.91,9a52.3429,52.3429,0,0,1,45.7972,26.4409l154.93,268.3452a52.8824,52.8824,0,0,1-45.7977,79.3233H61.98a52.8825,52.8825,0,0,1-45.7966-79.3233L171.1124,35.4409A52.3443,52.3443,0,0,1,216.91,9m0-9a61.2524,61.2524,0,0,0-53.5913,30.9409L8.39,299.2861A61.8824,61.8824,0,0,0,61.98,392.1094H371.8387a61.8824,61.8824,0,0,0,53.5918-92.8233L270.5009,30.9409A61.2513,61.2513,0,0,0,216.91,0Z"/><path class="cls-1" d="M216.91,39a22.6492,22.6492,0,0,1,19.8164,11.441l77.4646,134.1727,77.4648,134.1725a22.8823,22.8823,0,0,1-19.8166,34.3233H61.9806a22.8823,22.8823,0,0,1-19.8167-34.3231l77.4646-134.1727L197.0934,50.4409A22.6492,22.6492,0,0,1,216.91,39m0-9a31.5835,31.5835,0,0,0-27.6106,15.941L111.8344,180.1136,34.37,314.2863a31.8821,31.8821,0,0,0,27.6108,47.8231H371.839A31.8821,31.8821,0,0,0,399.45,314.2863L321.985,180.1136,244.52,45.9409A31.5837,31.5837,0,0,0,216.91,30Z"/><path class="cls-1" d="M244.9432,147.6084a1.97,1.97,0,0,1,1.8321,1.832V306.09a1.97,1.97,0,0,1-1.8321,1.8321H200.2841a1.97,1.97,0,0,1-1.8321-1.8321V200.7407a69.9547,69.9547,0,0,1-29.5439,17.4058,1.4674,1.4674,0,0,1-1.8321-1.374v-32.75a2.68,2.68,0,0,1,1.8321-2.5191c16.2607-5.4966,26.3379-16.49,32.5215-32.292a2.8158,2.8158,0,0,1,2.5185-1.603Z"/></svg>