<svg id="Layer_1" data-name="Layer 1" xmlns="http://www.w3.org/2000/svg" width="433.8197" height="392.1094" viewBox="0 0 433.8197 392.1094"><defs><style>.cls-1{fill:#ff4b3e;}</style></defs><title>Everydoctor icons-numbers</title><path class="cls-1" d="M216.91,9a52.3429,52.3429,0,0,1,45.7972,26.4409l154.93,268.3452a52.8824,52.8824,0,0,1-45.7977,79.3233H61.98a52.8825,52.8825,0,0,1-45.7966-79.3233L171.1124,35.4409A52.3443,52.3443,0,0,1,216.91,9m0-9a61.2524,61.2524,0,0,0-53.5913,30.9409L8.39,299.2861A61.8824,61.8824,0,0,0,61.98,392.1094H371.8387a61.8824,61.8824,0,0,0,53.5918-92.8233L270.5009,30.9409A61.2513,61.2513,0,0,0,216.91,0Z"/><path class="cls-1" d="M216.91,39a22.6492,22.6492,0,0,1,19.8164,11.441l77.4646,134.1727,77.4648,134.1725a22.8823,22.8823,0,0,1-19.8166,34.3233H61.9806a22.8823,22.8823,0,0,1-19.8167-34.3231l77.4646-134.1727L197.0934,50.4409A22.6492,22.6492,0,0,1,216.91,39m0-9a31.5835,31.5835,0,0,0-27.6106,15.941L111.8344,180.1136,34.37,314.2863a31.8821,31.8821,0,0,0,27.6108,47.8231H371.839A31.8821,31.8821,0,0,0,399.45,314.2863L321.985,180.1136,244.52,45.9409A31.5837,31.5837,0,0,0,216.91,30Z"/><path class="cls-1" d="M285.411,257.3086c0,36.6435-32.52,54.7353-64.583,54.7353-40.3076,0-61.1484-19.4668-64.126-54.9643a1.6234,1.6234,0,0,1,1.6035-1.832h42.3682a1.97,1.97,0,0,1,1.832,1.832c.6875,11.68,6.8711,18.78,17.4053,18.78,9.6192,0,16.2608-7.5576,16.2608-18.78,0-10.5347-6.87-16.7183-19.0088-16.7183H201.1317a1.97,1.97,0,0,1-1.832-1.832V210.1309a1.9706,1.9706,0,0,1,1.832-1.8326H217.163c10.0771,0,16.9472-5.2671,16.9472-13.2827,0-11.2221-7.1-15.3447-14.6572-15.3447s-13.5117,4.3516-14.4277,13.97a1.8064,1.8064,0,0,1-1.8321,1.8325H160.8241a1.6223,1.6223,0,0,1-1.6025-1.8325c2.748-32.0625,27.7109-50.1548,61.8349-50.1548,33.4365,0,57.4834,18.55,57.7129,45.1167,0,18.55-9.8476,27.94-22.4443,32.0625C275.1053,226.8491,285.411,238.5293,285.411,257.3086Z"/></svg>