<svg id="Layer_1" data-name="Layer 1" xmlns="http://www.w3.org/2000/svg" width="433.8197" height="392.1094" viewBox="0 0 433.8197 392.1094"><defs><style>.cls-1{fill:#ff4b3e;}</style></defs><title>Everydoctor icons-numbers</title><path class="cls-1" d="M216.91,9a52.3429,52.3429,0,0,1,45.7972,26.4409l154.93,268.3452a52.8824,52.8824,0,0,1-45.7977,79.3233H61.98a52.8825,52.8825,0,0,1-45.7966-79.3233L171.1124,35.4409A52.3443,52.3443,0,0,1,216.91,9m0-9a61.2524,61.2524,0,0,0-53.5913,30.9409L8.39,299.2861A61.8824,61.8824,0,0,0,61.98,392.1094H371.8387a61.8824,61.8824,0,0,0,53.5918-92.8233L270.5009,30.9409A61.2513,61.2513,0,0,0,216.91,0Z"/><path class="cls-1" d="M216.91,39a22.6492,22.6492,0,0,1,19.8164,11.441l77.4646,134.1727,77.4648,134.1725a22.8823,22.8823,0,0,1-19.8166,34.3233H61.9806a22.8823,22.8823,0,0,1-19.8167-34.3231l77.4646-134.1727L197.0934,50.4409A22.6492,22.6492,0,0,1,216.91,39m0-9a31.5835,31.5835,0,0,0-27.6106,15.941L111.8344,180.1136,34.37,314.2863a31.8821,31.8821,0,0,0,27.6108,47.8231H371.839A31.8821,31.8821,0,0,0,399.45,314.2863L321.985,180.1136,244.52,45.9409A31.5837,31.5837,0,0,0,216.91,30Z"/><path class="cls-1" d="M161.5956,307.9219a1.97,1.97,0,0,1-1.8321-1.8321V283.875c0-70.9961,76.0342-58.4,76.0342-90.4629,0-8.2446-5.2675-13.0537-14.4287-13.0537-8.2441,0-14.1982,5.2671-15.1152,14.8862a1.8063,1.8063,0,0,1-1.832,1.8321H163.8856a1.97,1.97,0,0,1-1.832-1.8321c1.6035-33.666,22.9023-51.5293,62.5224-51.7583,34.5821,0,55.8809,18.7793,55.8809,49.6968,0,55.6519-70.9961,54.5068-70.9961,77.4087v1.832h70.3086a1.97,1.97,0,0,1,1.832,1.8321V306.09a1.97,1.97,0,0,1-1.832,1.8321Z"/></svg>